<?xml version="1.0" standalone="no"?>
<!DOCTYPE svg PUBLIC "-//W3C//DTD SVG 20010904//EN"
 "http://www.w3.org/TR/2001/REC-SVG-20010904/DTD/svg10.dtd">
<svg version="1.0" xmlns="http://www.w3.org/2000/svg"
 width="512.000000pt" height="512.000000pt" viewBox="0 0 512.000000 512.000000"
 preserveAspectRatio="xMidYMid meet">

<g transform="translate(0.000000,512.000000) scale(0.100000,-0.100000)"
fill="#000000" stroke="none">
<path d="M220 5104 c-142 -52 -229 -183 -218 -327 11 -127 -39 -72 1077 -1189
l1026 -1028 -1026 -1028 c-827 -828 -1031 -1037 -1050 -1077 -34 -72 -34 -199
1 -270 31 -64 91 -124 155 -155 71 -35 198 -35 270 -1 40 19 249 223 1078
1050 l1027 1026 1028 -1026 c828 -827 1037 -1031 1077 -1050 72 -34 199 -34
270 1 64 31 124 91 155 155 34 72 35 199 1 270 -19 40 -224 251 -1050 1077
l-1026 1028 1026 1028 c827 828 1031 1037 1050 1077 34 72 34 199 -1 270 -31
64 -91 124 -155 155 -71 35 -198 35 -270 1 -40 -19 -249 -223 -1077 -1050
l-1028 -1026 -1027 1026 c-845 843 -1037 1030 -1078 1049 -66 30 -173 36 -235
14z"/>
</g>
</svg>
